<svg xmlns="http://www.w3.org/2000/svg" xmlns:xlink="http://www.w3.org/1999/xlink" width="500" zoomAndPan="magnify" viewBox="0 0 375 374.999991" height="500" preserveAspectRatio="xMidYMid meet" version="1.2"><defs><clipPath id="25dc5df0a8"><path d="M 49.5 199 L 91 199 L 91 215 L 49.5 215 Z M 49.5 199 "/></clipPath><clipPath id="ea08aafcc9"><path d="M 182 132 L 287.25 132 L 287.25 275.328125 L 182 275.328125 Z M 182 132 "/></clipPath><clipPath id="f2817fcc95"><path d="M 104 131.328125 L 266 131.328125 L 266 269 L 104 269 Z M 104 131.328125 "/></clipPath></defs><g id="c77e4cb779"><g clip-rule="nonzero" clip-path="url(#25dc5df0a8)"><path style=" stroke:none;fill-rule:nonzero;fill:#5ab334;fill-opacity:1;" d="M 90.214844 206.804688 C 90.214844 202.496094 86.722656 199 82.417969 199 L 57.300781 199 C 52.992188 199 49.503906 202.496094 49.503906 206.804688 C 49.503906 211.117188 52.992188 214.609375 57.300781 214.609375 L 82.417969 214.609375 C 86.722656 214.609375 90.214844 211.117188 90.214844 206.804688 "/></g><path style=" stroke:none;fill-rule:nonzero;fill:#5ab334;fill-opacity:1;" d="M 107.511719 230.21875 L 92.910156 230.21875 C 88.605469 230.21875 85.117188 233.714844 85.117188 238.023438 C 85.117188 242.335938 88.605469 245.828125 92.910156 245.828125 L 107.511719 245.828125 C 111.816406 245.828125 115.304688 242.335938 115.304688 238.023438 C 115.304688 233.714844 111.816406 230.21875 107.511719 230.21875 "/><g clip-rule="nonzero" clip-path="url(#ea08aafcc9)"><path style=" stroke:none;fill-rule:nonzero;fill:#81cc2a;fill-opacity:1;" d="M 226.800781 132.265625 C 259.761719 149.480469 274.472656 189.472656 259.679688 224.3125 C 246.523438 255.285156 214.269531 272.273438 182.503906 267.359375 C 192.351562 272.4375 203.515625 275.300781 215.355469 275.300781 C 255.058594 275.300781 287.242188 243.078125 287.242188 203.328125 C 287.242188 167.476562 261.0625 137.753906 226.800781 132.265625 "/></g><g clip-rule="nonzero" clip-path="url(#f2817fcc95)"><path style=" stroke:none;fill-rule:nonzero;fill:#5ab334;fill-opacity:1;" d="M 210.449219 209.695312 C 196.265625 204.921875 186.589844 198.285156 186.589844 185.414062 C 186.589844 173.734375 194.808594 164.578125 208.992188 161.792969 L 208.992188 149.183594 L 221.980469 149.183594 L 221.980469 160.863281 C 230.863281 161.261719 236.828125 163.117188 241.203125 165.242188 L 237.359375 180.238281 C 233.914062 178.777344 227.816406 175.726562 218.269531 175.726562 C 209.652344 175.726562 206.871094 179.441406 206.871094 183.15625 C 206.871094 187.535156 211.511719 190.324219 222.777344 194.570312 C 238.550781 200.144531 244.914062 207.441406 244.914062 219.386719 C 244.914062 231.199219 236.5625 241.285156 221.320312 243.9375 L 221.320312 257.472656 L 208.328125 257.472656 L 208.328125 244.863281 C 199.449219 244.464844 190.832031 242.078125 185.796875 239.15625 L 189.773438 223.632812 C 195.339844 226.683594 203.160156 229.472656 211.773438 229.472656 C 219.332031 229.472656 224.5 226.550781 224.5 221.242188 C 224.5 216.199219 220.257812 213.015625 210.449219 209.695312 Z M 259.679688 224.3125 C 274.472656 189.472656 259.761719 149.480469 226.800781 132.265625 C 223.074219 131.671875 219.25 131.355469 215.355469 131.355469 C 195.636719 131.355469 177.785156 139.308594 164.796875 152.175781 L 173.738281 152.175781 C 178.042969 152.175781 181.53125 155.671875 181.53125 159.980469 C 181.53125 164.292969 178.042969 167.785156 173.738281 167.785156 L 127.800781 167.785156 C 123.496094 167.785156 120.007812 171.277344 120.007812 175.589844 C 120.007812 179.898438 123.496094 183.394531 127.800781 183.394531 L 157.769531 183.394531 C 162.078125 183.394531 165.566406 186.886719 165.566406 191.199219 C 165.566406 195.507812 162.078125 199 157.769531 199 L 111.835938 199 C 107.53125 199 104.039062 202.496094 104.039062 206.804688 C 104.039062 211.117188 107.53125 214.609375 111.835938 214.609375 L 140.855469 214.609375 C 140.859375 214.609375 140.859375 214.609375 140.859375 214.609375 L 165.976562 214.609375 C 170.285156 214.609375 173.773438 218.105469 173.773438 222.417969 C 173.773438 226.726562 170.285156 230.21875 165.976562 230.21875 L 132.652344 230.21875 C 128.347656 230.21875 124.859375 233.714844 124.859375 238.023438 C 124.859375 242.335938 128.347656 245.828125 132.652344 245.828125 L 157.335938 245.828125 C 163.917969 254.820312 172.535156 262.222656 182.503906 267.359375 C 214.269531 272.273438 246.523438 255.285156 259.679688 224.3125 "/></g></g></svg> 