<svg xmlns="http://www.w3.org/2000/svg" xmlns:xlink="http://www.w3.org/1999/xlink" width="500" zoomAndPan="magnify" viewBox="0 0 375 374.999991" height="500" preserveAspectRatio="xMidYMid meet" version="1.2"><defs><clipPath id="27405ca0d6"><path d="M 37.5 151 L 57 151 L 57 159 L 37.5 159 Z M 37.5 151 "/></clipPath><clipPath id="3235a7206a"><path d="M 100 119.328125 L 150 119.328125 L 150 187.578125 L 100 187.578125 Z M 100 119.328125 "/></clipPath><clipPath id="d3e4b01366"><path d="M 63 119.328125 L 140 119.328125 L 140 185 L 63 185 Z M 63 119.328125 "/></clipPath></defs><g id="fc48246b50"><g clip-rule="nonzero" clip-path="url(#27405ca0d6)"><path style=" stroke:none;fill-rule:nonzero;fill:#5ab334;fill-opacity:1;" d="M 56.765625 155.101562 C 56.765625 153.058594 55.113281 151.402344 53.074219 151.402344 L 41.191406 151.402344 C 39.152344 151.402344 37.5 153.058594 37.5 155.101562 C 37.5 157.144531 39.152344 158.800781 41.191406 158.800781 L 53.074219 158.800781 C 55.113281 158.800781 56.765625 157.144531 56.765625 155.101562 "/></g><path style=" stroke:none;fill-rule:nonzero;fill:#5ab334;fill-opacity:1;" d="M 64.949219 166.199219 L 58.042969 166.199219 C 56.003906 166.199219 54.351562 167.855469 54.351562 169.898438 C 54.351562 171.941406 56.003906 173.597656 58.042969 173.597656 L 64.949219 173.597656 C 66.988281 173.597656 68.636719 171.941406 68.636719 169.898438 C 68.636719 167.855469 66.988281 166.199219 64.949219 166.199219 "/><g clip-rule="nonzero" clip-path="url(#3235a7206a)"><path style=" stroke:none;fill-rule:nonzero;fill:#81cc2a;fill-opacity:1;" d="M 121.394531 119.773438 C 136.992188 127.933594 143.953125 146.886719 136.953125 163.398438 C 130.730469 178.078125 115.46875 186.128906 100.433594 183.800781 C 105.09375 186.207031 110.378906 187.566406 115.980469 187.566406 C 134.765625 187.566406 149.996094 172.292969 149.996094 153.453125 C 149.996094 136.460938 137.609375 122.375 121.394531 119.773438 "/></g><g clip-rule="nonzero" clip-path="url(#d3e4b01366)"><path style=" stroke:none;fill-rule:nonzero;fill:#5ab334;fill-opacity:1;" d="M 113.660156 156.472656 C 106.949219 154.210938 102.371094 151.0625 102.371094 144.964844 C 102.371094 139.429688 106.257812 135.089844 112.96875 133.769531 L 112.96875 127.792969 L 119.117188 127.792969 L 119.117188 133.328125 C 123.320312 133.515625 126.140625 134.394531 128.210938 135.402344 L 126.390625 142.511719 C 124.761719 141.820312 121.875 140.371094 117.359375 140.371094 C 113.28125 140.371094 111.964844 142.132812 111.964844 143.894531 C 111.964844 145.96875 114.160156 147.289062 119.492188 149.304688 C 126.957031 151.945312 129.964844 155.402344 129.964844 161.066406 C 129.964844 166.660156 126.015625 171.441406 118.800781 172.699219 L 118.800781 179.117188 L 112.65625 179.117188 L 112.65625 173.140625 C 108.453125 172.949219 104.378906 171.820312 101.992188 170.433594 L 103.875 163.078125 C 106.507812 164.523438 110.210938 165.84375 114.285156 165.84375 C 117.863281 165.84375 120.308594 164.460938 120.308594 161.945312 C 120.308594 159.554688 118.300781 158.042969 113.660156 156.472656 Z M 136.953125 163.398438 C 143.953125 146.886719 136.992188 127.933594 121.394531 119.773438 C 119.632812 119.492188 117.824219 119.34375 115.980469 119.34375 C 106.648438 119.34375 98.203125 123.113281 92.058594 129.210938 L 96.289062 129.210938 C 98.324219 129.210938 99.976562 130.867188 99.976562 132.910156 C 99.976562 134.953125 98.324219 136.609375 96.289062 136.609375 L 74.550781 136.609375 C 72.515625 136.609375 70.863281 138.261719 70.863281 140.304688 C 70.863281 142.351562 72.515625 144.007812 74.550781 144.007812 L 88.734375 144.007812 C 90.769531 144.007812 92.421875 145.660156 92.421875 147.703125 C 92.421875 149.746094 90.769531 151.402344 88.734375 151.402344 L 66.996094 151.402344 C 64.957031 151.402344 63.308594 153.058594 63.308594 155.101562 C 63.308594 157.144531 64.957031 158.800781 66.996094 158.800781 L 92.617188 158.800781 C 94.652344 158.800781 96.304688 160.457031 96.304688 162.5 C 96.304688 164.542969 94.652344 166.199219 92.617188 166.199219 L 76.847656 166.199219 C 74.808594 166.199219 73.15625 167.855469 73.15625 169.898438 C 73.15625 171.941406 74.808594 173.597656 76.847656 173.597656 L 88.527344 173.597656 C 91.640625 177.855469 95.71875 181.367188 100.433594 183.800781 C 115.46875 186.128906 130.730469 178.078125 136.953125 163.398438 "/></g><g style="fill:#ffffff;fill-opacity:1;"><g transform="translate(152.81264, 172.164437)"><path style="stroke:none" d="M 16.21875 -41.71875 C 19.738281 -43.5625 23.976562 -44.484375 28.9375 -44.484375 C 33.488281 -44.484375 37.257812 -43.210938 40.25 -40.671875 C 43.195312 -38.378906 45.429688 -34.613281 46.953125 -29.375 C 47.441406 -28.0625 47.273438 -26.707031 46.453125 -25.3125 C 45.753906 -24.25 44.523438 -23.878906 42.765625 -24.203125 C 41.328125 -24.703125 40.140625 -26.21875 39.203125 -28.75 C 38.265625 -32.5625 36.707031 -34.984375 34.53125 -36.015625 C 32.726562 -36.992188 30.722656 -37.503906 28.515625 -37.546875 C 25.398438 -37.546875 22.507812 -36.910156 19.84375 -35.640625 C 17.46875 -34.578125 15.460938 -33.0625 13.828125 -31.09375 C 12.515625 -29.457031 11.773438 -27.613281 11.609375 -25.5625 C 11.609375 -23.632812 12.082031 -22.117188 13.03125 -21.015625 C 13.882812 -20.191406 15.15625 -19.703125 16.84375 -19.546875 C 18.519531 -19.546875 20.851562 -19.707031 23.84375 -20.03125 C 26.789062 -20.28125 29.632812 -20.425781 32.375 -20.46875 C 34.550781 -20.46875 36.5625 -20.054688 38.40625 -19.234375 C 40.25 -18.660156 41.847656 -17.367188 43.203125 -15.359375 C 44.546875 -13.804688 45.21875 -11.347656 45.21875 -7.984375 C 45.21875 -5.566406 44.378906 -3.296875 42.703125 -1.171875 C 41.273438 0.585938 39.1875 2.0625 36.4375 3.25 C 34.0625 4.070312 30.066406 4.664062 24.453125 5.03125 C 22.566406 5.03125 21.238281 4.296875 20.46875 2.828125 C 20.007812 1.347656 20.148438 0.0546875 20.890625 -1.046875 C 21.753906 -2.023438 23.25 -2.535156 25.375 -2.578125 C 28.695312 -2.578125 31.15625 -2.863281 32.75 -3.4375 C 34.226562 -3.925781 35.457031 -4.601562 36.4375 -5.46875 C 37.300781 -6.207031 37.753906 -7.148438 37.796875 -8.296875 C 37.796875 -9.648438 37.46875 -10.65625 36.8125 -11.3125 C 36.28125 -11.882812 35.5625 -12.3125 34.65625 -12.59375 C 34.082031 -12.84375 33.222656 -12.96875 32.078125 -12.96875 C 30.398438 -12.96875 27.835938 -12.820312 24.390625 -12.53125 C 21.273438 -12.445312 18.390625 -12.328125 15.734375 -12.171875 C 12.578125 -12.171875 9.789062 -13.359375 7.375 -15.734375 C 5.320312 -18.066406 4.21875 -21.34375 4.0625 -25.5625 C 4.0625 -28.882812 5.207031 -31.9375 7.5 -34.71875 C 9.789062 -37.539062 12.695312 -39.875 16.21875 -41.71875 Z M 6.140625 -29.4375 C 6.054688 -29.019531 6.054688 -28.609375 6.140625 -28.203125 C 6.390625 -28.117188 6.65625 -28.035156 6.9375 -27.953125 C 7.269531 -28.035156 7.578125 -28.40625 7.859375 -29.0625 C 8.972656 -31.882812 11.003906 -34.300781 13.953125 -36.3125 C 14.316406 -36.5625 14.5 -36.847656 14.5 -37.171875 C 14.5 -37.421875 14.359375 -37.664062 14.078125 -37.90625 C 13.992188 -38.03125 13.625 -38.007812 12.96875 -37.84375 C 9.9375 -35.800781 7.660156 -33 6.140625 -29.4375 Z M 39.578125 -16.953125 C 39.242188 -17.328125 38.832031 -17.429688 38.34375 -17.265625 C 38.175781 -17.265625 38.007812 -17.039062 37.84375 -16.59375 C 37.84375 -16.425781 38.113281 -16.015625 38.65625 -15.359375 C 39.957031 -14.578125 40.914062 -13.1875 41.53125 -11.1875 C 41.65625 -10.894531 41.863281 -10.628906 42.15625 -10.390625 C 42.476562 -10.390625 42.765625 -10.46875 43.015625 -10.625 C 43.253906 -10.832031 43.335938 -11.179688 43.265625 -11.671875 C 42.691406 -13.890625 41.460938 -15.648438 39.578125 -16.953125 Z M 32.375 2.953125 C 32.875 2.828125 33.179688 2.582031 33.296875 2.21875 C 33.296875 1.84375 33.195312 1.554688 33 1.359375 C 32.914062 1.234375 32.382812 1.234375 31.40625 1.359375 C 29.84375 1.554688 27.875 1.78125 25.5 2.03125 C 25.09375 2.03125 24.703125 2.171875 24.328125 2.453125 C 24.328125 2.535156 24.304688 2.820312 24.265625 3.3125 C 24.390625 3.519531 24.675781 3.707031 25.125 3.875 C 27.582031 3.789062 30 3.484375 32.375 2.953125 Z M 32.5 -18.734375 C 32.09375 -18.734375 31.75 -18.550781 31.46875 -18.1875 C 31.46875 -17.976562 31.523438 -17.691406 31.640625 -17.328125 C 31.847656 -17.242188 32.363281 -17.140625 33.1875 -17.015625 C 33.257812 -17.015625 33.335938 -17.035156 33.421875 -17.078125 C 33.992188 -17.078125 34.40625 -17.140625 34.65625 -17.265625 C 34.863281 -17.472656 34.925781 -17.757812 34.84375 -18.125 C 34.84375 -18.5 34.597656 -18.722656 34.109375 -18.796875 C 33.773438 -18.796875 33.238281 -18.773438 32.5 -18.734375 Z M 32.5 -18.734375 "/></g></g><g style="fill:#ffffff;fill-opacity:1;"><g transform="translate(197.554126, 172.164437)"><path style="stroke:none" d="M 34.34375 -24.515625 C 34.34375 -20.546875 34.710938 -15.816406 35.453125 -10.328125 C 36.066406 -5.117188 36.5625 -1.632812 36.9375 0.125 C 37.050781 1.1875 36.84375 2.207031 36.3125 3.1875 C 35.90625 3.84375 35.066406 4.335938 33.796875 4.671875 C 32.890625 4.671875 31.945312 4.445312 30.96875 4 C 30.3125 3.382812 29.820312 2.441406 29.5 1.171875 C 29.5 0.921875 29.4375 0.675781 29.3125 0.4375 C 27.914062 1.5 26.519531 2.414062 25.125 3.1875 C 23 4.09375 20.359375 4.628906 17.203125 4.796875 C 12.703125 4.796875 9.222656 3.566406 6.765625 1.109375 C 4.710938 -1.304688 3.582031 -4.484375 3.375 -8.421875 C 3.375 -10.710938 3.910156 -13.128906 4.984375 -15.671875 C 6.085938 -18.128906 7.519531 -20.460938 9.28125 -22.671875 C 11.082031 -24.847656 12.988281 -26.445312 15 -27.46875 C 16.957031 -28.53125 18.859375 -29.0625 20.703125 -29.0625 C 22.921875 -29.0625 25.007812 -28.648438 26.96875 -27.828125 C 27.300781 -27.828125 27.609375 -27.6875 27.890625 -27.40625 C 28.503906 -27.894531 29.285156 -28.179688 30.234375 -28.265625 C 31.335938 -28.347656 32.28125 -28.082031 33.0625 -27.46875 C 33.875 -27.019531 34.300781 -26.035156 34.34375 -24.515625 Z M 27.890625 -9.890625 C 27.691406 -12.921875 27.382812 -15.726562 26.96875 -18.3125 C 26.769531 -18.5625 26.460938 -18.867188 26.046875 -19.234375 C 25.398438 -20.210938 24.5625 -20.847656 23.53125 -21.140625 C 22.832031 -21.460938 21.890625 -21.625 20.703125 -21.625 C 20.003906 -21.625 19.003906 -21.273438 17.703125 -20.578125 C 16.753906 -20.128906 15.6875 -19.128906 14.5 -17.578125 C 13.71875 -16.390625 12.921875 -14.875 12.109375 -13.03125 C 11.648438 -11.507812 11.34375 -9.929688 11.1875 -8.296875 C 11.1875 -6.734375 11.65625 -5.378906 12.59375 -4.234375 C 13.582031 -3.460938 15.179688 -2.992188 17.390625 -2.828125 C 19.472656 -2.828125 21.378906 -3.335938 23.109375 -4.359375 C 24.660156 -5.304688 26.316406 -6.757812 28.078125 -8.71875 C 28.078125 -9.09375 28.015625 -9.484375 27.890625 -9.890625 Z M 33.671875 0.734375 C 33.753906 1.148438 33.957031 1.5 34.28125 1.78125 C 34.53125 1.78125 34.816406 1.71875 35.140625 1.59375 C 35.390625 1.394531 35.492188 1.007812 35.453125 0.4375 C 35.242188 -2.101562 34.851562 -4.769531 34.28125 -7.5625 C 34.28125 -7.925781 34.078125 -8.171875 33.671875 -8.296875 C 33.503906 -8.421875 33.21875 -8.378906 32.8125 -8.171875 C 32.726562 -8.128906 32.625 -7.820312 32.5 -7.25 C 32.875 -4.707031 33.265625 -2.046875 33.671875 0.734375 Z M 31.578125 -12.46875 C 31.578125 -12.0625 31.765625 -11.734375 32.140625 -11.484375 C 32.460938 -11.484375 32.75 -11.523438 33 -11.609375 C 33.238281 -11.816406 33.335938 -12.332031 33.296875 -13.15625 C 33.296875 -13.15625 33.28125 -13.15625 33.25 -13.15625 C 33.320312 -13.726562 33.257812 -14.132812 33.0625 -14.375 C 33.019531 -14.582031 32.710938 -14.664062 32.140625 -14.625 C 31.929688 -14.625 31.707031 -14.378906 31.46875 -13.890625 C 31.46875 -13.554688 31.503906 -13.082031 31.578125 -12.46875 Z M 6.328125 -1.90625 C 6.660156 -1.570312 6.988281 -1.304688 7.3125 -1.109375 C 7.675781 -1.109375 7.921875 -1.269531 8.046875 -1.59375 C 8.171875 -1.84375 8.085938 -2.316406 7.796875 -3.015625 C 6.859375 -4.972656 6.429688 -7.328125 6.515625 -10.078125 C 6.515625 -10.566406 6.410156 -10.914062 6.203125 -11.125 C 6.117188 -11.25 5.851562 -11.289062 5.40625 -11.25 C 5.238281 -11.25 5.015625 -10.960938 4.734375 -10.390625 C 4.648438 -7.398438 5.179688 -4.570312 6.328125 -1.90625 Z M 6.328125 -1.90625 "/></g></g><g style="fill:#ffffff;fill-opacity:1;"><g transform="translate(231.606465, 172.164437)"><path style="stroke:none" d="M 29 -23.046875 C 25.84375 -23.046875 22.078125 -22.898438 17.703125 -22.609375 C 17.492188 -18.347656 17.304688 -14.988281 17.140625 -12.53125 C 17.140625 -7.65625 17.40625 -4.664062 17.9375 -3.5625 C 18.4375 -2.863281 19.316406 -2.414062 20.578125 -2.21875 C 21.078125 -2.21875 21.691406 -2.378906 22.421875 -2.703125 C 23.160156 -3.066406 24.082031 -3.742188 25.1875 -4.734375 C 26.175781 -6.203125 27.46875 -6.898438 29.0625 -6.828125 C 30.664062 -6.828125 31.609375 -5.960938 31.890625 -4.234375 C 32.210938 -2.804688 31.925781 -1.519531 31.03125 -0.375 C 28.039062 1.925781 25.804688 3.441406 24.328125 4.171875 C 23.140625 4.503906 21.789062 4.753906 20.28125 4.921875 C 17.375 4.921875 14.914062 3.8125 12.90625 1.59375 C 11.226562 -0.613281 10.304688 -4.851562 10.140625 -11.125 C 10.140625 -13.78125 10.28125 -17.363281 10.5625 -21.875 C 8.882812 -21.832031 7.578125 -21.648438 6.640625 -21.328125 C 5.609375 -21.328125 4.625 -21.550781 3.6875 -22 C 3.113281 -22.570312 2.660156 -23.390625 2.328125 -24.453125 C 2.328125 -25.441406 2.578125 -26.34375 3.078125 -27.15625 C 3.691406 -27.894531 4.613281 -28.347656 5.84375 -28.515625 C 6.945312 -28.710938 8.707031 -28.9375 11.125 -29.1875 C 11.363281 -32.507812 11.710938 -36.175781 12.171875 -40.1875 C 12.367188 -41.625 13.082031 -42.75 14.3125 -43.5625 C 15.539062 -44.382812 16.769531 -44.34375 18 -43.4375 C 19.226562 -42.75 19.765625 -41.769531 19.609375 -40.5 C 19.273438 -36.851562 18.863281 -33.347656 18.375 -29.984375 C 22.1875 -30.316406 25.664062 -30.484375 28.8125 -30.484375 C 30.039062 -30.484375 30.984375 -30.15625 31.640625 -29.5 C 32.335938 -29.039062 32.707031 -28.175781 32.75 -26.90625 C 32.75 -26.007812 32.460938 -25.109375 31.890625 -24.203125 C 31.441406 -23.628906 30.476562 -23.242188 29 -23.046875 Z M 13.265625 -36.0625 C 13.265625 -35.65625 13.390625 -35.289062 13.640625 -34.96875 C 13.890625 -34.925781 14.195312 -34.90625 14.5625 -34.90625 C 14.8125 -35.03125 14.972656 -35.398438 15.046875 -36.015625 C 15.128906 -37.359375 15.234375 -38.8125 15.359375 -40.375 C 15.359375 -40.738281 15.21875 -41.003906 14.9375 -41.171875 C 14.769531 -41.378906 14.460938 -41.398438 14.015625 -41.234375 C 13.929688 -41.234375 13.765625 -40.96875 13.515625 -40.4375 C 13.515625 -39.125 13.429688 -37.664062 13.265625 -36.0625 Z M 29.984375 -1.65625 C 30.359375 -2.03125 30.484375 -2.398438 30.359375 -2.765625 C 30.359375 -3.085938 30.113281 -3.269531 29.625 -3.3125 C 29.457031 -3.3125 29.003906 -3.023438 28.265625 -2.453125 C 27.816406 -2.003906 27.039062 -1.347656 25.9375 -0.484375 C 25.644531 -0.410156 25.394531 -0.101562 25.1875 0.4375 C 25.1875 0.59375 25.332031 0.859375 25.625 1.234375 C 25.863281 1.316406 26.191406 1.316406 26.609375 1.234375 C 27.835938 0.367188 28.960938 -0.59375 29.984375 -1.65625 Z M 22.3125 -28.9375 C 21.894531 -28.9375 21.546875 -28.773438 21.265625 -28.453125 C 21.265625 -28.285156 21.285156 -27.976562 21.328125 -27.53125 C 21.441406 -27.445312 21.828125 -27.320312 22.484375 -27.15625 C 24.535156 -27.28125 26.707031 -27.425781 29 -27.59375 C 29.375 -27.59375 29.640625 -27.773438 29.796875 -28.140625 C 29.921875 -28.390625 29.898438 -28.675781 29.734375 -29 C 29.734375 -29.25 29.445312 -29.375 28.875 -29.375 C 26.832031 -29.375 24.644531 -29.226562 22.3125 -28.9375 Z M 22.3125 -28.9375 "/></g></g><g style="fill:#ffffff;fill-opacity:1;"><g transform="translate(260.129936, 172.164437)"><path style="stroke:none" d="M 13.828125 -27.15625 C 16.648438 -28.46875 20.070312 -29.125 24.09375 -29.125 C 27.488281 -29.125 30.289062 -28.40625 32.5 -26.96875 C 34.71875 -25.707031 36.398438 -23.554688 37.546875 -20.515625 C 38.035156 -19.253906 37.867188 -17.925781 37.046875 -16.53125 C 36.390625 -15.507812 35.203125 -15.160156 33.484375 -15.484375 C 32.097656 -15.972656 30.953125 -17.445312 30.046875 -19.90625 C 29.597656 -21.007812 28.675781 -21.707031 27.28125 -22 C 26.21875 -22.238281 25.007812 -22.378906 23.65625 -22.421875 C 21.488281 -22.421875 19.378906 -22.054688 17.328125 -21.328125 C 15.648438 -20.753906 14.195312 -19.875 12.96875 -18.6875 C 12.0625 -17.863281 11.53125 -16.796875 11.375 -15.484375 C 11.375 -14.703125 11.679688 -14.023438 12.296875 -13.453125 C 12.910156 -13.171875 13.789062 -12.945312 14.9375 -12.78125 C 16.125 -12.78125 17.78125 -13.066406 19.90625 -13.640625 C 22 -14.128906 24.046875 -14.394531 26.046875 -14.4375 C 27.847656 -14.4375 29.488281 -14.128906 30.96875 -13.515625 C 32.445312 -13.066406 33.757812 -12.046875 34.90625 -10.453125 C 36.007812 -9.179688 36.5625 -7.210938 36.5625 -4.546875 C 36.5625 -2.742188 36.03125 -1.003906 34.96875 0.671875 C 34.144531 1.941406 32.832031 3.050781 31.03125 4 C 29.59375 4.65625 27.09375 5.125 23.53125 5.40625 C 21.726562 5.40625 20.421875 4.6875 19.609375 3.25 C 19.148438 1.78125 19.289062 0.535156 20.03125 -0.484375 C 20.894531 -1.472656 22.347656 -1.96875 24.390625 -1.96875 C 25.742188 -1.96875 26.726562 -2.109375 27.34375 -2.390625 C 27.957031 -2.640625 28.445312 -2.988281 28.8125 -3.4375 C 29.1875 -3.8125 29.375 -4.285156 29.375 -4.859375 C 29.375 -5.554688 29.164062 -6.046875 28.75 -6.328125 C 28.46875 -6.660156 28.019531 -6.882812 27.40625 -7 C 27.070312 -7.125 26.519531 -7.1875 25.75 -7.1875 C 24.5625 -7.1875 22.695312 -6.921875 20.15625 -6.390625 C 17.976562 -6.066406 15.867188 -5.800781 13.828125 -5.59375 C 11.160156 -5.59375 8.804688 -6.472656 6.765625 -8.234375 C 5.078125 -9.953125 4.15625 -12.367188 4 -15.484375 C 4 -17.898438 4.921875 -20.113281 6.765625 -22.125 C 8.609375 -24.09375 10.960938 -25.769531 13.828125 -27.15625 Z M 6.265625 -19.234375 C 6.179688 -18.828125 6.140625 -18.394531 6.140625 -17.9375 C 6.265625 -17.851562 6.507812 -17.734375 6.875 -17.578125 C 7.207031 -17.578125 7.554688 -17.90625 7.921875 -18.5625 C 9.148438 -20.644531 11.097656 -22.320312 13.765625 -23.59375 C 14.210938 -23.84375 14.457031 -24.109375 14.5 -24.390625 C 14.5 -24.640625 14.378906 -24.90625 14.140625 -25.1875 C 14.097656 -25.394531 13.75 -25.414062 13.09375 -25.25 C 10.300781 -23.976562 8.023438 -21.972656 6.265625 -19.234375 Z M 32.75 -10.8125 C 32.425781 -11.1875 32.015625 -11.289062 31.515625 -11.125 C 31.359375 -11.125 31.195312 -10.898438 31.03125 -10.453125 C 31.03125 -10.285156 31.296875 -9.894531 31.828125 -9.28125 C 32.441406 -8.988281 32.914062 -8.3125 33.25 -7.25 C 33.363281 -6.96875 33.585938 -6.703125 33.921875 -6.453125 C 34.160156 -6.453125 34.425781 -6.535156 34.71875 -6.703125 C 34.96875 -6.898438 35.050781 -7.25 34.96875 -7.75 C 34.632812 -9.050781 33.894531 -10.070312 32.75 -10.8125 Z M 28.265625 3.4375 C 28.753906 3.3125 29.039062 3.066406 29.125 2.703125 C 29.207031 2.335938 29.125 2.070312 28.875 1.90625 C 28.789062 1.695312 28.257812 1.675781 27.28125 1.84375 C 26.21875 1.925781 24.828125 2.085938 23.109375 2.328125 C 22.691406 2.328125 22.320312 2.453125 22 2.703125 C 21.957031 2.785156 21.914062 3.070312 21.875 3.5625 C 22 3.769531 22.285156 3.953125 22.734375 4.109375 C 24.578125 4.109375 26.421875 3.882812 28.265625 3.4375 Z M 28.265625 3.4375 "/></g></g><g style="fill:#ffffff;fill-opacity:1;"><g transform="translate(295.34948, 172.164437)"><path style="stroke:none" d="M 3.875 1.40625 C 4.238281 -10.019531 5.015625 -23.429688 6.203125 -38.828125 C 6.203125 -39.328125 6.117188 -39.820312 5.953125 -40.3125 C 5.953125 -41.414062 6.320312 -42.335938 7.0625 -43.078125 C 7.757812 -43.773438 8.765625 -44.125 10.078125 -44.125 C 12.535156 -44.125 16.859375 -44.082031 23.046875 -44 C 29.265625 -44 34.773438 -43.648438 39.578125 -42.953125 C 40.804688 -42.953125 41.75 -42.476562 42.40625 -41.53125 C 43.007812 -40.957031 43.273438 -40.035156 43.203125 -38.765625 C 43.203125 -37.828125 42.789062 -36.925781 41.96875 -36.0625 C 41.394531 -35.53125 40.367188 -35.265625 38.890625 -35.265625 C 34.265625 -35.878906 28.738281 -36.289062 22.3125 -36.5 C 18.78125 -36.625 15.847656 -36.6875 13.515625 -36.6875 C 13.234375 -31.320312 12.863281 -25.851562 12.40625 -20.28125 C 14.5 -20.363281 17.675781 -20.460938 21.9375 -20.578125 C 27.09375 -20.785156 31.679688 -20.75 35.703125 -20.46875 C 36.929688 -20.46875 37.894531 -20.054688 38.59375 -19.234375 C 39.207031 -18.660156 39.515625 -17.738281 39.515625 -16.46875 C 39.515625 -15.519531 39.144531 -14.597656 38.40625 -13.703125 C 37.875 -13.171875 36.867188 -12.863281 35.390625 -12.78125 C 31.546875 -13.101562 26.9375 -13.207031 21.5625 -13.09375 C 17.101562 -13.09375 13.910156 -12.96875 11.984375 -12.71875 C 11.898438 -8.207031 11.710938 -3.578125 11.421875 1.171875 C 11.421875 2.316406 10.992188 3.316406 10.140625 4.171875 C 9.484375 4.742188 8.582031 5.09375 7.4375 5.21875 C 6.613281 5.21875 5.773438 4.847656 4.921875 4.109375 C 4.347656 3.421875 4 2.519531 3.875 1.40625 Z M 30.546875 -19.109375 C 30.128906 -19.109375 29.757812 -18.96875 29.4375 -18.6875 C 29.4375 -18.601562 29.4375 -18.296875 29.4375 -17.765625 C 29.5625 -17.679688 29.945312 -17.535156 30.59375 -17.328125 C 32.320312 -17.328125 34.164062 -17.304688 36.125 -17.265625 C 36.5 -17.265625 36.785156 -17.429688 36.984375 -17.765625 C 37.109375 -18.085938 37.109375 -18.375 36.984375 -18.625 C 36.984375 -18.863281 36.695312 -19.023438 36.125 -19.109375 C 34.363281 -19.109375 32.503906 -19.109375 30.546875 -19.109375 Z M 32.8125 -41.96875 C 32.40625 -41.96875 32.015625 -41.84375 31.640625 -41.59375 C 31.640625 -41.519531 31.640625 -41.210938 31.640625 -40.671875 C 31.765625 -40.597656 32.132812 -40.4375 32.75 -40.1875 C 34.957031 -40.1875 37.3125 -40.003906 39.8125 -39.640625 C 40.1875 -39.640625 40.453125 -39.78125 40.609375 -40.0625 C 40.816406 -40.394531 40.835938 -40.703125 40.671875 -40.984375 C 40.671875 -41.234375 40.40625 -41.398438 39.875 -41.484375 C 37.625 -41.597656 35.269531 -41.757812 32.8125 -41.96875 Z M 7.5 -10.5 C 7.5 -11.082031 7.351562 -11.453125 7.0625 -11.609375 C 6.976562 -11.734375 6.671875 -11.734375 6.140625 -11.609375 C 6.054688 -11.609375 5.914062 -11.238281 5.71875 -10.5 C 5.71875 -6.976562 5.53125 -3.066406 5.15625 1.234375 C 5.15625 1.429688 5.320312 1.695312 5.65625 2.03125 C 5.894531 2.03125 6.179688 2.050781 6.515625 2.09375 C 6.753906 1.96875 6.894531 1.679688 6.9375 1.234375 C 7.0625 -2.703125 7.25 -6.613281 7.5 -10.5 Z M 7.5 -10.5 "/></g></g><g style="fill:#ffffff;fill-opacity:1;"><g transform="translate(334.31637, 172.164437)"><path style="stroke:none" d="M 6.015625 -36.875 C 5.691406 -37.5625 5.363281 -38.007812 5.03125 -38.21875 C 4.5 -39.28125 4.253906 -40.304688 4.296875 -41.296875 C 4.503906 -42.273438 5.054688 -43.050781 5.953125 -43.625 C 6.898438 -44.195312 7.863281 -44.382812 8.84375 -44.1875 C 9.832031 -44.144531 10.675781 -43.488281 11.375 -42.21875 C 11.613281 -42.132812 12.019531 -41.597656 12.59375 -40.609375 C 13.164062 -40.035156 13.660156 -39.34375 14.078125 -38.53125 C 14.648438 -37.5 14.769531 -36.453125 14.4375 -35.390625 C 14.269531 -34.609375 13.613281 -33.894531 12.46875 -33.25 C 11.695312 -32.914062 10.734375 -32.769531 9.578125 -32.8125 C 8.765625 -33.0625 7.988281 -33.78125 7.25 -34.96875 C 7.082031 -35.539062 6.671875 -36.175781 6.015625 -36.875 Z M 9.765625 -42.28125 C 9.609375 -42.726562 9.28125 -42.929688 8.78125 -42.890625 C 8.625 -42.890625 8.378906 -42.726562 8.046875 -42.40625 C 8.046875 -42.238281 8.148438 -41.828125 8.359375 -41.171875 C 9.097656 -40.347656 9.894531 -39.238281 10.75 -37.84375 C 11 -37.769531 11.285156 -37.648438 11.609375 -37.484375 C 11.984375 -37.566406 12.226562 -37.75 12.34375 -38.03125 C 12.46875 -38.28125 12.429688 -38.585938 12.234375 -38.953125 C 11.578125 -40.054688 10.753906 -41.164062 9.765625 -42.28125 Z M 5.84375 -14.25 C 5.957031 -19.90625 5.992188 -23.613281 5.953125 -25.375 C 5.953125 -26.601562 6.320312 -27.585938 7.0625 -28.328125 C 7.757812 -29.066406 8.640625 -29.4375 9.703125 -29.4375 C 10.816406 -29.4375 11.71875 -29.066406 12.40625 -28.328125 C 13.144531 -27.753906 13.515625 -26.75 13.515625 -25.3125 C 13.515625 -23.269531 13.453125 -19.335938 13.328125 -13.515625 C 13.328125 -8.023438 13 -3.03125 12.34375 1.46875 C 12.34375 2.539062 11.875 3.484375 10.9375 4.296875 C 10.363281 4.753906 9.421875 5.019531 8.109375 5.09375 C 7.210938 5.019531 6.332031 4.613281 5.46875 3.875 C 4.9375 3.132812 4.671875 2.109375 4.671875 0.796875 C 5.285156 -3.503906 5.675781 -8.519531 5.84375 -14.25 Z M 12.109375 -24.03125 C 12.109375 -24.601562 11.960938 -24.96875 11.671875 -25.125 C 11.585938 -25.25 11.28125 -25.25 10.75 -25.125 C 10.664062 -25.125 10.523438 -24.757812 10.328125 -24.03125 C 10.328125 -21.363281 10.222656 -18.351562 10.015625 -15 C 10.015625 -14.789062 10.175781 -14.519531 10.5 -14.1875 C 10.75 -14.1875 11.039062 -14.1875 11.375 -14.1875 C 11.613281 -14.3125 11.753906 -14.582031 11.796875 -15 C 11.878906 -18.070312 11.984375 -21.082031 12.109375 -24.03125 Z M 12.109375 -24.03125 "/></g></g></g></svg>